<?xml version="1.0" encoding="utf-8"?>
<!-- Generator: Adobe Illustrator 16.0.3, SVG Export Plug-In . SVG Version: 6.00 Build 0)  -->
<!DOCTYPE svg PUBLIC "-//W3C//DTD SVG 1.1//EN" "http://www.w3.org/Graphics/SVG/1.1/DTD/svg11.dtd">
<svg version="1.1" id="Layer_1" xmlns="http://www.w3.org/2000/svg" xmlns:xlink="http://www.w3.org/1999/xlink" x="0px" y="0px"
	 width="595px" height="458px" viewBox="0 0 595 458" enable-background="new 0 0 595 458" xml:space="preserve">
<path opacity="0.7" fill="#00AEEF" d="M277.722,293.776c38.363,0,45.556-22.778,45.556-22.778
	c19.779-29.971-17.383-81.221-17.383-81.221c-14.384-26.297-28.173-88.535-28.173-88.535h0.11c0,0-16.172,69.867-28.172,88.535
	c0,0-37.164,51.25-17.383,81.221c0,0,7.193,22.778,45.556,22.778H277.722z"/>
<path opacity="0.6" fill="#F1F2F2" d="M277.777,284.126c0,0,70.188-5.395,27.029-76.864
	C304.806,207.262,322.189,265.543,277.777,284.126z"/>
<text transform="matrix(1 0 0 1 239.3135 365.8672)"><tspan x="0" y="0" fill="#00AEEF" stroke="#58595B" stroke-width="1.7713" stroke-miterlimit="10" font-family="'Futura-Heavy'" font-size="74.6045" letter-spacing="3">TFC</tspan><tspan x="4.603" y="18.422" fill="#58595B" font-family="'Futura-Book'" font-size="15.3512">Swimming Pool</tspan></text>
<path fill="#00AEEF" stroke="#58595B" stroke-width="1.7713" stroke-miterlimit="10" d="M438.677,233.711
	C438.677,338.805,377.214,424,301.395,424c-75.819,0-137.282-85.195-137.282-190.289S225.576,43.422,301.395,43.422
	C377.214,43.422,438.677,128.617,438.677,233.711z M301.46,56.226c-70.717,0-128.045,79.462-128.045,177.485
	s57.328,177.484,128.045,177.484s128.044-79.462,128.044-177.484S372.178,56.226,301.46,56.226z"/>
<path fill="#00AEEF" d="M319.391,200.723c25.275,0,30.015-15.007,30.015-15.007c13.033-19.747-11.452-53.514-11.452-53.514
	c-9.478-17.326-18.562-58.332-18.562-58.332h0.072c0,0-10.655,46.032-18.562,58.332c0,0-24.485,33.767-11.452,53.514
	c0,0,4.739,15.007,30.014,15.007H319.391z"/>
<path opacity="0.6" fill="#F1F2F2" d="M319.427,194.365c0,0,46.244-3.554,17.809-50.643
	C337.235,143.722,348.688,182.122,319.427,194.365z"/>
</svg>
