<?xml version="1.0" encoding="utf-8"?>
<!-- Generator: Adobe Illustrator 16.0.3, SVG Export Plug-In . SVG Version: 6.00 Build 0)  -->
<!DOCTYPE svg PUBLIC "-//W3C//DTD SVG 1.1//EN" "http://www.w3.org/Graphics/SVG/1.1/DTD/svg11.dtd">
<svg version="1.1" id="Layer_1" xmlns="http://www.w3.org/2000/svg" xmlns:xlink="http://www.w3.org/1999/xlink" x="0px" y="0px"
	 width="725.386px" height="216.386px" viewBox="0 0 725.386 216.386" enable-background="new 0 0 725.386 216.386"
	 xml:space="preserve">
<g>
	<defs>
		<rect id="SVGID_1_" x="56.693" y="56.693" width="725.386" height="216.386"/>
	</defs>
	<clipPath id="SVGID_2_">
		<use xlink:href="#SVGID_1_"  overflow="visible"/>
	</clipPath>
	<rect x="56.693" y="56.693" clip-path="url(#SVGID_2_)" fill="#FFFFFF" width="608" height="99"/>
</g>
<g>
	<defs>
		<rect id="SVGID_3_" x="79.693" y="75.693" width="582.767" height="77"/>
	</defs>
	<clipPath id="SVGID_4_">
		<use xlink:href="#SVGID_3_"  overflow="visible"/>
	</clipPath>
	<rect x="79.693" y="75.693" clip-path="url(#SVGID_4_)" fill="#FFFFFF" width="582.767" height="77"/>
</g>
<g>
	<defs>
		<rect id="SVGID_5_" x="56.693" y="56.693" width="725.386" height="216.386"/>
	</defs>
	<clipPath id="SVGID_6_">
		<use xlink:href="#SVGID_5_"  overflow="visible"/>
	</clipPath>
	<path clip-path="url(#SVGID_6_)" fill="#E6E6E6" d="M237.138,133.567H79.818v19h157.32V133.567z M237.138,114.317H79.818v19h157.32
		V114.317z M237.138,95.068H79.818v19h157.32V95.068z M662.335,75.818h-84.789v19h84.789V75.818z M577.296,75.818h-84.79v19h84.79
		V75.818z M492.256,75.818h-84.789v19h84.789V75.818z M407.217,75.818h-84.789v19h84.789V75.818z M322.178,75.818h-84.79v19h84.79
		V75.818z M237.138,75.818H79.818v19h157.32V75.818z"/>
	<path clip-path="url(#SVGID_6_)" fill="none" stroke="#CDCDCD" stroke-width="0.25" stroke-miterlimit="10" d="M662.46,75.693v77
		V75.693z"/>
	<path clip-path="url(#SVGID_6_)" fill="none" stroke="#CDCDCD" stroke-width="0.25" stroke-miterlimit="10" d="M577.421,75.693v77
		V75.693z"/>
	<path clip-path="url(#SVGID_6_)" fill="none" stroke="#CDCDCD" stroke-width="0.25" stroke-miterlimit="10" d="M492.381,75.693v77
		V75.693z"/>
	<path clip-path="url(#SVGID_6_)" fill="none" stroke="#CDCDCD" stroke-width="0.25" stroke-miterlimit="10" d="M407.342,75.693v77
		V75.693z"/>
	<path clip-path="url(#SVGID_6_)" fill="none" stroke="#CDCDCD" stroke-width="0.25" stroke-miterlimit="10" d="M322.303,75.693v77
		V75.693z"/>
	<path clip-path="url(#SVGID_6_)" fill="none" stroke="#CDCDCD" stroke-width="0.25" stroke-miterlimit="10" d="M237.263,75.693v77
		V75.693z"/>
	<path clip-path="url(#SVGID_6_)" fill="none" stroke="#CDCDCD" stroke-width="0.25" stroke-miterlimit="10" d="M79.693,75.693v77
		V75.693z"/>
	<path clip-path="url(#SVGID_6_)" fill="none" stroke="#CDCDCD" stroke-width="0.25" stroke-miterlimit="10" d="M79.568,152.692
		h583.017H79.568z"/>
	<path clip-path="url(#SVGID_6_)" fill="none" stroke="#CDCDCD" stroke-width="0.25" stroke-miterlimit="10" d="M79.568,133.442
		h583.017H79.568z"/>
	<path clip-path="url(#SVGID_6_)" fill="none" stroke="#CDCDCD" stroke-width="0.25" stroke-miterlimit="10" d="M79.568,114.192
		h583.017H79.568z"/>
	<path clip-path="url(#SVGID_6_)" fill="none" stroke="#CDCDCD" stroke-width="0.25" stroke-miterlimit="10" d="M79.568,94.943
		h583.017H79.568z"/>
	<path clip-path="url(#SVGID_6_)" fill="none" stroke="#CDCDCD" stroke-width="0.25" stroke-miterlimit="10" d="M79.568,75.693
		h583.017H79.568z"/>
</g>
<g>
	<defs>
		<rect id="SVGID_7_" x="237.388" y="75.818" width="84.79" height="19"/>
	</defs>
	<clipPath id="SVGID_8_">
		<use xlink:href="#SVGID_7_"  overflow="visible"/>
	</clipPath>
	<g clip-path="url(#SVGID_8_)">
		<text transform="matrix(1 0 0 1 248.416 90.8174)" font-family="'HelveticaNeue-Bold'" font-size="14">1 session</text>
	</g>
</g>
<g>
	<defs>
		<rect id="SVGID_9_" x="322.428" y="75.818" width="84.789" height="19"/>
	</defs>
	<clipPath id="SVGID_10_">
		<use xlink:href="#SVGID_9_"  overflow="visible"/>
	</clipPath>
	<g clip-path="url(#SVGID_10_)">
		<text transform="matrix(1 0 0 1 337.5991 90.8174)" font-family="'HelveticaNeue-Bold'" font-size="14">1 month</text>
	</g>
</g>
<g>
	<defs>
		<rect id="SVGID_11_" x="407.467" y="75.818" width="84.789" height="19"/>
	</defs>
	<clipPath id="SVGID_12_">
		<use xlink:href="#SVGID_11_"  overflow="visible"/>
	</clipPath>
	<g clip-path="url(#SVGID_12_)">
		<text transform="matrix(1 0 0 1 418.8789 90.8174)" font-family="'HelveticaNeue-Bold'" font-size="14">3 months</text>
	</g>
</g>
<g>
	<defs>
		<rect id="SVGID_13_" x="492.506" y="75.818" width="84.79" height="19"/>
	</defs>
	<clipPath id="SVGID_14_">
		<use xlink:href="#SVGID_13_"  overflow="visible"/>
	</clipPath>
	<g clip-path="url(#SVGID_14_)">
		<text transform="matrix(1 0 0 1 503.9199 90.8174)" font-family="'HelveticaNeue-Bold'" font-size="14">6 months</text>
	</g>
</g>
<g>
	<defs>
		<rect id="SVGID_15_" x="577.546" y="75.818" width="84.789" height="19"/>
	</defs>
	<clipPath id="SVGID_16_">
		<use xlink:href="#SVGID_15_"  overflow="visible"/>
	</clipPath>
	<g clip-path="url(#SVGID_16_)">
		<text transform="matrix(1 0 0 1 599.7109 90.8174)" font-family="'HelveticaNeue-Bold'" font-size="14">1 year</text>
	</g>
</g>
<g>
	<defs>
		<rect id="SVGID_17_" x="79.818" y="95.068" width="157.32" height="19"/>
	</defs>
	<clipPath id="SVGID_18_">
		<use xlink:href="#SVGID_17_"  overflow="visible"/>
	</clipPath>
	<g clip-path="url(#SVGID_18_)">
		<text transform="matrix(1 0 0 1 81.8179 110.0674)" font-family="'HelveticaNeue-Bold'" font-size="14">senior, student, youth</text>
	</g>
</g>
<g>
	<defs>
		<rect id="SVGID_19_" x="79.818" y="114.317" width="157.32" height="19"/>
	</defs>
	<clipPath id="SVGID_20_">
		<use xlink:href="#SVGID_19_"  overflow="visible"/>
	</clipPath>
	<g clip-path="url(#SVGID_20_)">
		<text transform="matrix(1 0 0 1 81.8179 129.3174)" font-family="'HelveticaNeue-Bold'" font-size="14">adults</text>
	</g>
</g>
<g>
	<defs>
		<rect id="SVGID_21_" x="79.818" y="133.567" width="157.32" height="19"/>
	</defs>
	<clipPath id="SVGID_22_">
		<use xlink:href="#SVGID_21_"  overflow="visible"/>
	</clipPath>
	<g clip-path="url(#SVGID_22_)">
		<text transform="matrix(1 0 0 1 81.8179 148.5674)" font-family="'HelveticaNeue-Bold'" font-size="14">family</text>
	</g>
</g>
<g>
	<defs>
		<rect id="SVGID_23_" x="237.388" y="95.068" width="84.79" height="19"/>
	</defs>
	<clipPath id="SVGID_24_">
		<use xlink:href="#SVGID_23_"  overflow="visible"/>
	</clipPath>
	<g clip-path="url(#SVGID_24_)">
		<text transform="matrix(1 0 0 1 285.1494 109.0674)" font-family="'HelveticaNeue'" font-size="14">$2.90</text>
	</g>
</g>
<g>
	<defs>
		<rect id="SVGID_25_" x="322.428" y="95.068" width="84.789" height="19"/>
	</defs>
	<clipPath id="SVGID_26_">
		<use xlink:href="#SVGID_25_"  overflow="visible"/>
	</clipPath>
	<g clip-path="url(#SVGID_26_)">
		<text transform="matrix(1 0 0 1 362.4043 109.0674)" font-family="'HelveticaNeue'" font-size="14">$62.25</text>
	</g>
</g>
<g>
	<defs>
		<rect id="SVGID_27_" x="407.467" y="95.068" width="84.789" height="19"/>
	</defs>
	<clipPath id="SVGID_28_">
		<use xlink:href="#SVGID_27_"  overflow="visible"/>
	</clipPath>
	<g clip-path="url(#SVGID_28_)">
		<text transform="matrix(1 0 0 1 439.6602 109.0674)" font-family="'HelveticaNeue'" font-size="14">$123.50</text>
	</g>
</g>
<g>
	<defs>
		<rect id="SVGID_29_" x="492.506" y="95.068" width="84.79" height="19"/>
	</defs>
	<clipPath id="SVGID_30_">
		<use xlink:href="#SVGID_29_"  overflow="visible"/>
	</clipPath>
	<g clip-path="url(#SVGID_30_)">
		<text transform="matrix(1 0 0 1 524.6992 109.0674)" font-family="'HelveticaNeue'" font-size="14">$229.50</text>
	</g>
</g>
<g>
	<defs>
		<rect id="SVGID_31_" x="577.546" y="95.068" width="84.789" height="19"/>
	</defs>
	<clipPath id="SVGID_32_">
		<use xlink:href="#SVGID_31_"  overflow="visible"/>
	</clipPath>
	<g clip-path="url(#SVGID_32_)">
		<text transform="matrix(1 0 0 1 609.7383 109.0674)" font-family="'HelveticaNeue'" font-size="14">$415.00</text>
	</g>
</g>
<g>
	<defs>
		<rect id="SVGID_33_" x="237.388" y="114.317" width="84.79" height="19"/>
	</defs>
	<clipPath id="SVGID_34_">
		<use xlink:href="#SVGID_33_"  overflow="visible"/>
	</clipPath>
	<g clip-path="url(#SVGID_34_)">
		<text transform="matrix(1 0 0 1 285.1494 128.3174)" font-family="'HelveticaNeue'" font-size="14">$4.85</text>
	</g>
</g>
<g>
	<defs>
		<rect id="SVGID_35_" x="322.428" y="114.317" width="84.789" height="19"/>
	</defs>
	<clipPath id="SVGID_36_">
		<use xlink:href="#SVGID_35_"  overflow="visible"/>
	</clipPath>
	<g clip-path="url(#SVGID_36_)">
		<text transform="matrix(1 0 0 1 362.4043 128.3174)" font-family="'HelveticaNeue'" font-size="14">$76.50</text>
	</g>
</g>
<g>
	<defs>
		<rect id="SVGID_37_" x="407.467" y="114.317" width="84.789" height="19"/>
	</defs>
	<clipPath id="SVGID_38_">
		<use xlink:href="#SVGID_37_"  overflow="visible"/>
	</clipPath>
	<g clip-path="url(#SVGID_38_)">
		<text transform="matrix(1 0 0 1 439.6602 128.3174)" font-family="'HelveticaNeue'" font-size="14">$151.50</text>
	</g>
</g>
<g>
	<defs>
		<rect id="SVGID_39_" x="492.506" y="114.317" width="84.79" height="19"/>
	</defs>
	<clipPath id="SVGID_40_">
		<use xlink:href="#SVGID_39_"  overflow="visible"/>
	</clipPath>
	<g clip-path="url(#SVGID_40_)">
		<text transform="matrix(1 0 0 1 524.6992 128.3174)" font-family="'HelveticaNeue'" font-size="14">$280.75</text>
	</g>
</g>
<g>
	<defs>
		<rect id="SVGID_41_" x="577.546" y="114.317" width="84.789" height="19"/>
	</defs>
	<clipPath id="SVGID_42_">
		<use xlink:href="#SVGID_41_"  overflow="visible"/>
	</clipPath>
	<g clip-path="url(#SVGID_42_)">
		<text transform="matrix(1 0 0 1 609.7383 128.3174)" font-family="'HelveticaNeue'" font-size="14">$510.50</text>
	</g>
</g>
<g>
	<defs>
		<rect id="SVGID_43_" x="237.388" y="133.567" width="84.79" height="19"/>
	</defs>
	<clipPath id="SVGID_44_">
		<use xlink:href="#SVGID_43_"  overflow="visible"/>
	</clipPath>
	<g clip-path="url(#SVGID_44_)">
		<text transform="matrix(1 0 0 1 285.1494 147.5674)" font-family="'HelveticaNeue'" font-size="14">$3.75</text>
	</g>
</g>
<g>
	<defs>
		<rect id="SVGID_45_" x="322.428" y="133.567" width="84.789" height="19"/>
	</defs>
	<clipPath id="SVGID_46_">
		<use xlink:href="#SVGID_45_"  overflow="visible"/>
	</clipPath>
	<g clip-path="url(#SVGID_46_)">
		<text transform="matrix(1 0 0 1 354.6211 147.5674)" font-family="'HelveticaNeue'" font-size="14">$101.75</text>
	</g>
</g>
<g>
	<defs>
		<rect id="SVGID_47_" x="407.467" y="133.567" width="84.789" height="19"/>
	</defs>
	<clipPath id="SVGID_48_">
		<use xlink:href="#SVGID_47_"  overflow="visible"/>
	</clipPath>
	<g clip-path="url(#SVGID_48_)">
		<text transform="matrix(1 0 0 1 439.6602 147.5674)" font-family="'HelveticaNeue'" font-size="14">$275.00</text>
	</g>
</g>
<g>
	<defs>
		<rect id="SVGID_49_" x="492.506" y="133.567" width="84.79" height="19"/>
	</defs>
	<clipPath id="SVGID_50_">
		<use xlink:href="#SVGID_49_"  overflow="visible"/>
	</clipPath>
	<g clip-path="url(#SVGID_50_)">
		<text transform="matrix(1 0 0 1 524.6992 147.5674)" font-family="'HelveticaNeue'" font-size="14">$504.75</text>
	</g>
</g>
<g>
	<defs>
		<rect id="SVGID_51_" x="577.546" y="133.567" width="84.789" height="19"/>
	</defs>
	<clipPath id="SVGID_52_">
		<use xlink:href="#SVGID_51_"  overflow="visible"/>
	</clipPath>
	<g clip-path="url(#SVGID_52_)">
		<text transform="matrix(1 0 0 1 609.7383 147.5674)" font-family="'HelveticaNeue'" font-size="14">$919.50</text>
	</g>
</g>
</svg>
